<?xml version="1.0" encoding="iso-8859-1"?>
<svg xmlns="http://www.w3.org/2000/svg" xmlns:xlink="http://www.w3.org/1999/xlink" version="1.1" id="Layer_1" x="0px" y="0px" viewBox="0 0 457.481 457.481" style="enable-background:new 0 0 457.481 457.481;" xml:space="preserve" width="512" height="512">
<g>
	<path style="fill:#90BC42;" d="M228.743,176.999c0,0-21.27-0.51-39.09,7.3c8.86-47.84-30.85-115.84-31.4-116.79   c24.74,10.68,40.84,28.75,51.3,47.16C226.983,145.359,228.743,176.999,228.743,176.999z"/>
	<path style="fill:#9AD14B;" d="M299.223,67.509c-0.55,0.95-40.26,68.95-31.4,116.79c-17.82-7.81-39.08-7.3-39.08-7.3   s1.76-31.64,19.19-62.33C258.383,96.259,274.483,78.189,299.223,67.509z"/>
	<path style="fill:#9AD14B;" d="M247.933,114.669c-17.43,30.69-19.19,62.33-19.19,62.33s-1.76-31.64-19.19-62.33   c0,0-1.81-63.67,19.19-107.17C249.743,50.999,247.933,114.669,247.933,114.669z"/>
	<path style="fill:#F7B239;" d="M228.743,176.999c0,0,21.26-0.51,39.08,7.3c12.85,5.64,23.91,15.59,23.91,33.19   c0,15-3.63,41.49-9.88,72c-11.24,54.91-30.93,122.89-53.11,160.49c-14.3-24.25-27.57-61.13-38.21-99   c-10.84-38.59-18.95-78.19-22.62-106.49c-1.41-10.92-2.17-20.16-2.17-27c0-17.59,11.05-27.55,23.91-33.19   C207.473,176.489,228.743,176.999,228.743,176.999z"/>
	<path style="fill:#E09B2D;" d="M216.663,350.979c3.36,37.87,7.56,74.75,12.08,99c-14.3-24.25-27.57-61.13-38.21-99   c-10.84-38.59-18.95-78.19-22.62-106.49c-1.41-10.92-2.17-20.16-2.17-27c0-17.59,11.05-27.55,23.91-33.19   c16.38-7.18,35.67-7.33,38.69-7.3c-1.52,0.02-7.14,0.62-11.96,7.3c-4.06,5.64-7.56,15.6-7.56,33.19c0,6.84,0.24,16.08,0.69,27   C210.673,272.789,213.233,312.389,216.663,350.979z"/>
	<polygon style="fill:#90BC42;" points="228.743,16.009 228.743,150.009 209.743,104.009 214.743,44.009  "/>
<!--	<path style="fill:#FFFFFF;" d="M244.931,351.844c-0.672,0-1.354-0.091-2.033-0.282c-3.987-1.121-6.312-5.262-5.191-9.25   c2.453-8.727,4.82-17.735,7.036-26.775c0.985-4.022,5.044-6.489,9.069-5.499c4.023,0.986,6.485,5.046,5.499,9.07   c-2.255,9.202-4.665,18.374-7.163,27.262C251.217,349.68,248.207,351.844,244.931,351.844z"/>-->
<!--	<path style="fill:#FFFFFF;" d="M262.499,276.011c-0.445,0-0.897-0.04-1.352-0.123c-4.075-0.742-6.777-4.646-6.036-8.721   c2.411-13.251,4.214-25.397,5.213-35.125c0.423-4.12,4.085-7.116,8.228-6.694c4.12,0.424,7.117,4.107,6.694,8.228   c-1.039,10.107-2.898,22.651-5.377,36.277C269.21,273.473,266.054,276.011,262.499,276.011z"/>-->
<!--	<circle style="fill:#FFFFFF;" cx="267.829" cy="212.223" r="7.5"/>-->
	<path style="fill:#333333;" d="M305.702,71.297c1.644-2.797,1.303-6.334-0.845-8.766c-2.148-2.432-5.617-3.207-8.595-1.92   c-15.99,6.905-29.911,17.376-41.363,30.96c-1.35-23.103-5.721-58.987-19.405-87.333C234.243,1.647,231.618,0,228.74,0   s-5.503,1.647-6.754,4.239c-13.684,28.345-18.055,64.23-19.405,87.333c-11.453-13.584-25.374-24.056-41.364-30.961   c-2.98-1.287-6.444-0.511-8.593,1.919c-2.147,2.43-2.489,5.967-0.848,8.765c0.378,0.645,36.75,63.278,31.071,107.966   c-4.545,2.34-8.828,5.235-12.504,8.824c-8.028,7.84-12.1,17.734-12.1,29.408c0,43.156,28.992,176.875,64.037,236.298   c1.349,2.287,3.806,3.69,6.46,3.69s5.111-1.403,6.46-3.69c35.045-59.424,64.037-193.142,64.037-236.298   c0-11.674-4.071-21.568-12.1-29.408c-3.676-3.59-7.96-6.484-12.505-8.824C268.954,134.572,305.325,71.94,305.702,71.297z    M228.74,27.769c11.422,35.049,11.784,76.001,11.716,84.92c-3.037,5.51-5.774,11.347-8.196,17.497   c-1.327,3.371-2.491,6.667-3.521,9.854c-1.03-3.188-2.193-6.484-3.521-9.854c-2.421-6.149-5.159-11.986-8.196-17.496   C216.957,103.771,217.319,62.818,228.74,27.769z M176.703,87.112c14.755,11.607,26.276,27.719,34.392,48.146   c5.545,13.957,8.115,26.763,9.27,34.513c-5.72,0.403-13.679,1.364-22.007,3.613C199.536,143.19,186.849,109.169,176.703,87.112z    M284.238,217.493c0,13.872-3.202,37.497-8.525,64.5h-31.971c-4.143,0-7.5,3.358-7.5,7.5s3.357,7.5,7.5,7.5h28.87   c-2.033,9.407-4.283,19.064-6.71,28.731c-11.229,44.734-24.216,82.551-37.161,108.492c-9.647-19.332-19.317-45.262-28.265-75.733   h20.766c4.143,0,7.5-3.358,7.5-7.5s-3.357-7.5-7.5-7.5H196.23c-1.579-5.786-3.132-11.707-4.651-17.759   c-6.592-26.261-11.881-52.444-15.054-73.731h17.716c4.143,0,7.5-3.358,7.5-7.5s-3.357-7.5-7.5-7.5h-19.691   c-0.852-7.657-1.307-14.272-1.307-19.5c0-7.576,2.472-13.677,7.556-18.653c7.718-7.553,20.037-11.056,29.012-12.666   c8.729-1.565,16.117-1.685,18.179-1.685c0.363,0,0.562,0.003,0.572,0.004c0.119,0.003,0.238,0.003,0.357,0   c8.989-0.217,35.06,1.942,47.739,14.324C281.758,203.797,284.238,209.906,284.238,217.493z M237.116,169.771   c1.155-7.75,3.725-20.556,9.269-34.513c8.115-20.427,19.637-36.539,34.392-48.146c-10.146,22.057-22.832,56.077-21.655,86.271   C250.794,171.135,242.836,170.174,237.116,169.771z"/>
</g>















</svg>
